#!OML:ASF H:\Pregnant\Project 1\Capture day 1\Session 1\femalepreg.ASF
:FULLY-SPECIFIED
:DEGREES
1138
root 3.81866 1.93048 15.7547 -61.3691 -8.15643 -51.3971
lowerback -6.25163 6.72209 -10.6453
upperback -1.14172 9.54387 1.35253
thorax 0.312357 4.77925 7.76872
lowerneck -19.3395 4.08699 1.1848
upperneck 34.7492 6.23322 1.13003
head 15.4478 3.07499 1.46974
rclavicle 1.65389e-013 1.90833e-014
rhumerus 30.6011 82.9216 -56.6518
rradius 86.9397
rwrist -21.7525
rhand -39.2399 0.016609
rfingers 7.12502
rthumb -12.235 -29.6055
lclavicle 1.65389e-013 1.90833e-014
lhumerus 60.8473 9.96662 26.5961
lradius 32.1046
lwrist 20.5301
lhand 8.1652 13.8236
lfingers 7.12502
lthumb 33.3841 40.7419
rfemur -62.9109 -2.64453 26.2244
rtibia 132.066
rfoot 16.3717 23.1116
rtoes -12.1729
lfemur -87.6963 27.0997 -35.1294
ltibia 128.14
lfoot 20.0458 -12.6299
ltoes 23.3596
1139
root 3.84396 1.94123 15.769 -61.3735 -7.82027 -51.9104
lowerback -6.29344 6.60686 -10.7855
upperback -1.07913 9.4096 1.38512
thorax 0.401599 4.70569 7.89114
lowerneck -19.3792 4.0112 1.06018
upperneck 34.8622 6.17701 1.12327
head 15.5065 3.03117 1.48253
rclavicle -3.18055e-014 -1.59028e-015
rhumerus 30.7121 82.9074 -56.3441
rradius 87.0523
rwrist -21.6627
rhand -39.5333 -0.0558059
rfingers 7.12502
rthumb -12.5179 -29.6609
lclavicle -3.18055e-014 -1.59028e-015
lhumerus 61.1699 10.1173 26.9639
lradius 32.0517
lwrist 20.4358
lhand 7.98253 13.7388
lfingers 7.12502
lthumb 33.2104 40.6943
rfemur -62.7492 -2.50357 26.1476
rtibia 132.037
rfoot 16.6834 22.9781
rtoes -11.9617
lfemur -87.4494 27.0428 -35.2484
ltibia 128.102
lfoot 20.1003 -12.6122
ltoes 23.5052
1140
root 3.87011 1.95261 15.7832 -61.3953 -7.4724 -52.4271
lowerback -6.32599 6.49559 -10.9392
upperback -1.022 9.28018 1.42379
thorax 0.476501 4.63553 8.02542
lowerneck -19.3841 3.9315 0.919432
upperneck 34.9628 6.12157 1.11639
head 15.5507 2.98613 1.49655
rclavicle 3.18055e-014 1.11319e-014
rhumerus 30.4822 82.8833 -56.3653
rradius 87.1429
rwrist -21.5032
rhand -39.835 -0.0445581
rfingers 7.12502
rthumb -12.8088 -29.6316
lclavicle 3.18055e-014 1.11319e-014
lhumerus 61.4926 10.2477 27.381
lradius 31.9962
lwrist 20.2364
lhand 7.83292 13.637
lfingers 7.12502
lthumb 33.0682 40.6228
rfemur -62.5703 -2.37618 26.058
rtibia 131.998
rfoot 17.0598 22.8338
rtoes -11.5432
lfemur -87.1672 26.99 -35.363
ltibia 128.051
lfoot 20.1587 -12.5895
ltoes 23.6139
1141
root 3.89706 1.96433 15.7975 -61.4206 -7.11429 -52.9542
lowerback -6.35858 6.3843 -11.1011
upperback -0.972318 9.15086 1.46676
thorax 0.542447 4.56613 8.16804
lowerneck -19.3636 3.84945 0.764942
upperneck 35.055 6.06877 1.10824
head 15.5847 2.94058 1.51175
rclavicle -5.08889e-014 1.59028e-014
rhumerus 29.9655 82.8477 -56.67
rradius 87.1982
rwrist -21.2397
rhand -40.166 0.0129691
rfingers 7.12502
rthumb -13.1278 -29.5538
lclavicle -5.08889e-014 1.59028e-014
lhumerus 61.8149 10.3566 27.829
lradius 31.9383
lwrist 19.9599
lhand 7.68374 13.5135
lfingers 7.12502
lthumb 32.9263 40.5292
rfemur -62.3924 -2.26615 25.9598
rtibia 131.954
rfoot 17.4791 22.7003
rtoes -11.0159
lfemur -86.8707 26.9216 -35.4763
ltibia 127.991
lfoot 20.2206 -12.5617
ltoes 23.7278
1142
root 3.92464 1.9762 15.8123 -61.4351 -6.75668 -53.4956
lowerback -6.41141 6.26516 -11.2672
upperback -0.917317 9.01434 1.51202
thorax 0.626863 4.49157 8.31884
lowerneck -19.3805 3.7783 0.636881
upperneck 35.1431 6.02686 1.08557
head 15.6274 2.90044 1.51951
rclavicle 2.06736e-014 3.33958e-014
rhumerus 29.4832 82.7884 -56.9618
rradius 87.2098
rwrist -20.8666
rhand -40.5032 0.0598519
rfingers 7.12502
rthumb -13.4528 -29.4857
lclavicle 2.06736e-014 3.33958e-014
lhumerus 62.1367 10.4716 28.2449
lradius 31.8785
lwrist 19.6632
lhand 7.53243 13.396
lfingers 7.12502
lthumb 32.7823 40.4419
rfemur -62.2352 -2.16127 25.8697
rtibia 131.907
rfoot 17.9416 22.56
rtoes -10.3705
lfemur -86.5911 26.8347 -35.5852
ltibia 127.933
lfoot 20.2938 -12.526
ltoes 23.827
1143
root 3.95292 1.98811 15.8275 -61.4408 -6.40509 -54.0529
lowerback -6.47931 6.14011 -11.4283
upperback -0.857793 8.87204 1.55952
thorax 0.727269 4.41268 8.47191
lowerneck -19.439 3.71496 0.529382
upperneck 35.2334 5.99143 1.05505
head 15.6825 2.86394 1.5231
rclavicle -4.13472e-014 -6.04305e-014
rhumerus 29.063 82.7088 -57.2118
rradius 87.1751
rwrist -20.3942
rhand -40.8536 0.0931973
rfingers 7.12502
rthumb -13.7905 -29.4297
lclavicle -4.13472e-014 -6.04305e-014
lhumerus 62.4596 10.5774 28.5845
lradius 31.8071
lwrist 19.4
lhand 7.33282 13.285
lfingers 7.12502
lthumb 32.5924 40.3703
rfemur -62.0979 -2.05835 25.7936
rtibia 131.856
rfoot 18.422 22.468
rtoes -9.79169
lfemur -86.3266 26.7352 -35.6811
ltibia 127.882
lfoot 20.3722 -12.4876
ltoes 23.9067
1144
root 3.98177 2.00018 15.8433 -61.4346 -6.05602 -54.6226
lowerback -6.56518 6.00925 -11.5889
upperback -0.795329 8.72466 1.60542
thorax 0.843491 4.32972 8.62566
lowerneck -19.5373 3.65953 0.444861
upperneck 35.3271 5.96041 1.02075
head 15.75 2.8312 1.52339
rclavicle 6.36111e-015 0
rhumerus 28.7715 82.6234 -57.3564
rradius 87.0682
rwrist -19.7716
rhand -41.3367 0.217356
rfingers 7.12502
rthumb -14.2561 -29.2733
lclavicle 6.36111e-015 0
lhumerus 62.7906 10.6824 28.8966
lradius 31.7358
lwrist 19.1234
lhand 7.10961 13.1869
lfingers 7.12502
lthumb 32.38 40.3159
rfemur -61.9861 -1.95642 25.7281
rtibia 131.803
rfoot 18.9357 22.3863
rtoes -9.20557
lfemur -86.0815 26.6216 -35.7719
ltibia 127.834
lfoot 20.4538 -12.446
ltoes 23.9561
1145
root 4.0111 2.01236 15.8596 -61.4211 -5.71122 -55.2045
lowerback -6.66351 5.87614 -11.7461
upperback -0.732408 8.57595 1.6519
thorax 0.969064 4.2451 8.77977
lowerneck -19.6572 3.60509 0.376441
upperneck 35.4264 5.92723 0.980921
head 15.8266 2.79847 1.51897
rclavicle 6.36111e-014 3.65764e-014
rhumerus 28.5226 82.5306 -57.4751
rradius 86.8918
rwrist -19.0176
rhand -41.9279 0.418206
rfingers 7.12502
rthumb -14.8257 -29.0314
lclavicle 6.36111e-014 3.65764e-014
lhumerus 63.1326 10.7657 29.1532
lradius 31.6515
lwrist 18.8748
lhand 6.85134 13.1157
lfingers 7.12502
lthumb 32.1342 40.2947
rfemur -61.8948 -1.85147 25.6778
rtibia 131.746
rfoot 19.4775 22.3035
rtoes -8.55597
lfemur -85.8502 26.4986 -35.8511
ltibia 127.793
lfoot 20.5293 -12.4038
ltoes 23.9901
1146
root 4.04137 2.02482 15.8758 -61.4191 -5.3584 -55.7926
lowerback -6.74617 5.75293 -11.9007
upperback -0.692109 8.43693 1.70104
thorax 1.06064 4.16833 8.93119
lowerneck -19.6934 3.53681 0.272922
upperneck 35.5108 5.8785 0.96496
head 15.8738 2.75965 1.52451
rclavicle -5.725e-014 -2.8625e-014
rhumerus 27.7937 82.447 -58.0629
rradius 86.6404
rwrist -18.1149
rhand -42.6546 0.746887
rfingers 7.12502
rthumb -15.5257 -28.6498
lclavicle -5.725e-014 -2.8625e-014
lhumerus 63.4838 10.7729 29.443
lradius 31.5571
lwrist 18.5852
lhand 6.58499 13.0704
lfingers 7.12502
lthumb 31.8806 40.3002
rfemur -61.7943 -1.76112 25.6192
rtibia 131.677
rfoot 20.0651 22.2355
rtoes -7.90265
lfemur -85.5874 26.3693 -35.9206
ltibia 127.741
lfoot 20.581 -12.3646
ltoes 24.0056
1147
root 4.07245 2.03741 15.892 -61.4272 -5.00675 -56.3917
lowerback -6.81314 5.63997 -12.0415
upperback -0.675723 8.30707 1.75488
thorax 1.11808 4.0995 9.07601
lowerneck -19.643 3.45417 0.142075
upperneck 35.5811 5.81521 0.960083
head 15.8923 2.71428 1.53348
rclavicle 3.97569e-014 -5.40694e-014
rhumerus 26.5697 82.3631 -59.1413
rradius 86.3218
rwrist -17.084
rhand -43.4967 1.15753
rfingers 7.12502
rthumb -16.3367 -28.1744
lclavicle 3.97569e-014 -5.40694e-014
lhumerus 63.8373 10.7087 29.7828
lradius 31.4714
lwrist 18.2313
lhand 6.34625 13.0598
lfingers 7.12502
lthumb 31.6532 40.3347
rfemur -61.6902 -1.68043 25.5673
rtibia 131.596
rfoot 20.7053 22.1587
rtoes -7.19335
lfemur -85.3023 26.2369 -35.9697
ltibia 127.687
lfoot 20.6065 -12.3286
ltoes 24.0359
1148
root 4.10446 2.05034 15.908 -61.446 -4.65033 -56.9975
lowerback -6.87706 5.5409 -12.1729
upperback -0.673164 8.19374 1.80794
thorax 1.15734 4.04069 9.21347
lowerneck -19.5084 3.35607 -0.0139803
upperneck 35.6188 5.73071 0.969138
head 15.8732 2.66052 1.54506
rclavicle -9.06458e-014 -1.59028e-014
rhumerus 24.8959 82.2429 -60.6688
rradius 85.9512
rwrist -15.9592
rhand -44.4044 1.59956
rfingers 7.12502
rthumb -17.2105 -27.6583
lclavicle -9.06458e-014 -1.59028e-014
lhumerus 64.2141 10.5836 30.2075
lradius 31.3988
lwrist 17.7686
lhand 6.1688 13.0795
lfingers 7.12502
lthumb 31.4841 40.3875
rfemur -61.5821 -1.61507 25.514
rtibia 131.503
rfoot 21.395 22.0732
rtoes -6.4008
lfemur -84.9885 26.1002 -36.0062
ltibia 127.625
lfoot 20.6111 -12.2883
ltoes 24.084
1149
root 4.13717 2.06317 15.9244 -61.4753 -4.30756 -57.6196
lowerback -6.92831 5.45061 -12.2746
upperback -0.687301 8.08724 1.86439
thorax 1.17438 3.98781 9.33529
lowerneck -19.302 3.24962 -0.189381
upperneck 35.6283 5.63236 0.994932
head 15.822 2.60244 1.56154
rclavicle -3.33958e-014 9.54166e-015
rhumerus 22.885 82.0849 -62.5454
rradius 85.5501
rwrist -14.7848
rhand -45.3289 1.9585
rfingers 7.12502
rthumb -18.1001 -27.2193
lclavicle -3.33958e-014 9.54166e-015
lhumerus 64.5918 10.4042 30.666
lradius 31.3443
lwrist 17.2212
lhand 6.06521 13.1068
lfingers 7.12502
lthumb 31.3855 40.4341
rfemur -61.4693 -1.55682 25.4864
rtibia 131.392
rfoot 22.1253 21.9856
rtoes -5.61343
lfemur -84.6624 25.966 -36.0131
ltibia 127.57
lfoot 20.6036 -12.2393
ltoes 24.1721
1150
root 4.17026 2.07582 15.9416 -61.5096 -3.98695 -58.2607
lowerback -6.97549 5.35006 -12.3582
upperback -0.683865 7.96679 1.91966
thorax 1.2147 3.92554 9.44669
lowerneck -19.1906 3.16149 -0.313356
upperneck 35.6462 5.54604 1.007
head 15.8003 2.5528 1.56903
rclavicle -1.43125e-014 -3.33958e-014
rhumerus 21.2973 81.8827 -64.0692
rradius 85.1203
rwrist -13.6159
rhand -46.2418 2.21499
rfingers 7.12502
rthumb -18.9783 -26.8791
lclavicle -1.43125e-014 -3.33958e-014
lhumerus 64.9504 10.263 31.0305
lradius 31.3332
lwrist 16.6469
lhand 6.07041 13.1544
lfingers 7.12502
lthumb 31.3904 40.4807
rfemur -61.3595 -1.50154 25.4989
rtibia 131.272
rfoot 22.884 21.8989
rtoes -4.83832
lfemur -84.3434 25.8359 -35.9869
ltibia 127.535
lfoot 20.6044 -12.1591
ltoes 24.3304
1151
root 4.2037 2.08828 15.9598 -61.5469 -3.68665 -58.9197
lowerback -7.02022 5.23645 -12.4317
upperback -0.659715 7.82958 1.97698
thorax 1.28171 3.85206 9.55599
lowerneck -19.1901 3.09246 -0.388076
upperneck 35.6763 5.4764 1.00024
head 15.8136 2.51223 1.56702
rclavicle -3.97569e-014 1.43125e-014
rhumerus 20.2343 81.6454 -65.1341
rradius 84.6845
rwrist -12.5174
rhand -47.0772 2.33528
rfingers 7.12502
rthumb -19.7815 -26.6781
lclavicle -3.97569e-014 1.43125e-014
lhumerus 65.2834 10.1675 31.2568
lradius 31.3583
lwrist 16.0807
lhand 6.16645 13.2096
lfingers 7.12502
lthumb 31.4819 40.5181
rfemur -61.2614 -1.45 25.5472
rtibia 131.142
rfoot 23.6914 21.8096
rtoes -4.02742
lfemur -84.034 25.6977 -35.9332
ltibia 127.518
lfoot 20.6322 -12.0248
ltoes 24.5536
